<svg xmlns="http://www.w3.org/2000/svg" xmlns:xlink="http://www.w3.org/1999/xlink" version="1.1" x="0px" y="0px" viewBox="0 0 100 125" style="enable-background:new 0 0 100 100;" xml:space="preserve"><path d="M89.125,79.1616211h-2.3847656V14.4282227c0-2.4418945-2.0966797-4.4287109-4.6728516-4.4287109  s-4.6728516,1.9868164-4.6728516,4.4287109v4.8266602h-4.885498c-0.4592285-2.0882568-2.3164062-3.6577148-4.5373535-3.6577148  c-2.2218628,0-4.0791016,1.569458-4.538269,3.6577148h-8.9381104c-0.4591675-2.0882568-2.3164062-3.6577148-4.538269-3.6577148  s-4.0791016,1.569458-4.538269,3.6577148h-8.9381104c-0.4591675-2.0882568-2.3164062-3.6577148-4.538269-3.6577148  s-4.0791016,1.569458-4.538269,3.6577148h-4.8640747v-4.8266602c0-2.4418945-2.0966797-4.4287109-4.6728516-4.4287109  s-4.6728516,1.9868164-4.6728516,4.4287109v64.7333984H11.125c-0.5527344,0-1,0.4477539-1,1v8.8378906c0,0.5522461,0.4472656,1,1,1  h78c0.5527344,0,1-0.4477539,1-1v-8.8378906C90.125,79.609375,89.6777344,79.1616211,89.125,79.1616211z M82.0673828,11.9995117  c1.4736328,0,2.6728516,1.0893555,2.6728516,2.4287109v64.7333984h-5.3457031V14.4282227  C79.3945312,13.0888672,80.59375,11.9995117,82.0673828,11.9995117z M35.399231,37.2773438  c0.4591675,2.0882568,2.3164062,3.6577148,4.538269,3.6577148c1.7719727,0,3.2971802-1.0082397,4.0825195-2.4711914  c0.7853394,1.4629517,2.3105469,2.4711914,4.0825195,2.4711914c1.7128906,0,3.1959229-0.9419556,4.003418-2.3255005  c0.8074951,1.3835449,2.2905273,2.3255005,4.003418,2.3255005c2.2218628,0,4.0791016-1.569458,4.538269-3.6577148h3.1246338  c0.4591675,2.0882568,2.3164062,3.6577148,4.538269,3.6577148c2.2209473,0,4.078125-1.569458,4.5373535-3.6577148h4.5466309  v14.0219727h-4.5466309c-0.4592285-2.0882568-2.3164062-3.6577148-4.5373535-3.6577148  c-2.2218628,0-4.0791016,1.569458-4.538269,3.6577148h-4.9351807c-0.4591675-2.0882568-2.3162842-3.6577148-4.5372925-3.6577148  c-1.7132568,0-3.1965332,0.9423828-4.0039062,2.326416c-0.807373-1.3840332-2.2906494-2.326416-4.0039062-2.326416  c-2.2218628,0-4.0791016,1.569458-4.538269,3.6577148H36.819519c-0.4591675-2.0882568-2.3164062-3.6577148-4.538269-3.6577148  s-4.0791016,1.569458-4.538269,3.6577148h-5.2029419V37.2773438H35.399231z M37.2851562,36.2773438  c0-1.4658203,1.1894531-2.6582031,2.6523438-2.6582031s2.6523438,1.1923828,2.6523438,2.6582031  c0,1.465332-1.1894531,2.6577148-2.6523438,2.6577148S37.2851562,37.7426758,37.2851562,36.2773438z M45.4501953,36.2773438  c0-1.4658203,1.1894531-2.6582031,2.6523438-2.6582031s2.6523438,1.1923828,2.6523438,2.6582031  c0,1.465332-1.1894531,2.6577148-2.6523438,2.6577148S45.4501953,37.7426758,45.4501953,36.2773438z M53.4570312,36.2773438  c0-1.4658203,1.1894531-2.6582031,2.6523438-2.6582031s2.6523438,1.1923828,2.6523438,2.6582031  c0,1.465332-1.1894531,2.6577148-2.6523438,2.6577148S53.4570312,37.7426758,53.4570312,36.2773438z M65.6582031,36.2773438  c0-1.4658203,1.1894531-2.6582031,2.6523438-2.6582031c1.4619141,0,2.6513672,1.1923828,2.6513672,2.6582031  c0,1.465332-1.1894531,2.6577148-2.6513672,2.6577148C66.8476562,38.9350586,65.6582031,37.7426758,65.6582031,36.2773438z   M72.5090332,67.3212891c-0.4592285-2.0882568-2.3164062-3.6577148-4.5373535-3.6577148  c-2.2218628,0-4.0791016,1.569458-4.538269,3.6577148h-8.9381104c-0.4591675-2.0882568-2.3164062-3.6577148-4.538269-3.6577148  s-4.0791016,1.569458-4.538269,3.6577148h-8.9381104c-0.4591675-2.0882568-2.3164062-3.6577148-4.538269-3.6577148  s-4.0791016,1.569458-4.538269,3.6577148h-4.8640747V53.2993164h5.2029419  c0.4591675,2.0882568,2.3164062,3.6577148,4.538269,3.6577148s4.0791016-1.569458,4.538269-3.6577148h4.9342041  c0.4591675,2.0882568,2.3164062,3.6577148,4.538269,3.6577148c1.7132568,0,3.1965332-0.9423828,4.0039062-2.326416  c0.807373,1.3840332,2.2906494,2.326416,4.0039062,2.326416c2.2210083,0,4.078125-1.569458,4.5372925-3.6577148h4.9351807  c0.4591675,2.0882568,2.3164062,3.6577148,4.538269,3.6577148c2.2209473,0,4.078125-1.569458,4.5373535-3.6577148h4.5466309  v14.0219727H72.5090332z M70.6230469,68.3212891c0,1.4658203-1.1894531,2.6582031-2.6513672,2.6582031  c-1.4628906,0-2.6523438-1.1923828-2.6523438-2.6582031c0-1.465332,1.1894531-2.6577148,2.6523438-2.6577148  C69.4335938,65.6635742,70.6230469,66.855957,70.6230469,68.3212891z M52.609375,68.3212891  c0,1.4658203-1.1894531,2.6582031-2.6523438,2.6582031s-2.6523438-1.1923828-2.6523438-2.6582031  c0-1.465332,1.1894531-2.6577148,2.6523438-2.6577148S52.609375,66.855957,52.609375,68.3212891z M34.5947266,68.3212891  c0,1.4658203-1.1894531,2.6582031-2.6523438,2.6582031s-2.6523438-1.1923828-2.6523438-2.6582031  c0-1.465332,1.1894531-2.6577148,2.6523438-2.6577148S34.5947266,66.855957,34.5947266,68.3212891z M29.6289062,52.2993164  c0-1.465332,1.1894531-2.6577148,2.6523438-2.6577148s2.6523438,1.1923828,2.6523438,2.6577148  s-1.1894531,2.6577148-2.6523438,2.6577148S29.6289062,53.7646484,29.6289062,52.2993164z M43.6396484,52.2993164  c0-1.465332,1.1894531-2.6577148,2.6523438-2.6577148s2.6523438,1.1923828,2.6523438,2.6577148  s-1.1894531,2.6577148-2.6523438,2.6577148S43.6396484,53.7646484,43.6396484,52.2993164z M51.6474609,52.2993164  c0-1.465332,1.1894531-2.6577148,2.6523438-2.6577148c1.4619141,0,2.6513672,1.1923828,2.6513672,2.6577148  s-1.1894531,2.6577148-2.6513672,2.6577148C52.8369141,54.9570312,51.6474609,53.7646484,51.6474609,52.2993164z   M65.6582031,52.2993164c0-1.465332,1.1894531-2.6577148,2.6523438-2.6577148c1.4619141,0,2.6513672,1.1923828,2.6513672,2.6577148  s-1.1894531,2.6577148-2.6513672,2.6577148C66.8476562,54.9570312,65.6582031,53.7646484,65.6582031,52.2993164z   M22.5400391,69.3212891h4.8640747c0.4591675,2.0883789,2.3164062,3.6582031,4.538269,3.6582031  s4.0791016-1.5698242,4.538269-3.6582031h8.9381104c0.4591675,2.0883789,2.3164062,3.6582031,4.538269,3.6582031  s4.0791016-1.5698242,4.538269-3.6582031h8.9381104c0.4591675,2.0883789,2.3164062,3.6582031,4.538269,3.6582031  c2.2209473,0,4.078125-1.5698242,4.5373535-3.6582031h4.885498v9.840332H22.5400391V69.3212891z M67.9716797,17.597168  c1.4619141,0,2.6513672,1.1923828,2.6513672,2.6577148s-1.1894531,2.6577148-2.6513672,2.6577148  c-1.4628906,0-2.6523438-1.1923828-2.6523438-2.6577148S66.5087891,17.597168,67.9716797,17.597168z M49.9570312,17.597168  c1.4628906,0,2.6523438,1.1923828,2.6523438,2.6577148s-1.1894531,2.6577148-2.6523438,2.6577148  s-2.6523438-1.1923828-2.6523438-2.6577148S48.4941406,17.597168,49.9570312,17.597168z M31.9423828,17.597168  c1.4628906,0,2.6523438,1.1923828,2.6523438,2.6577148s-1.1894531,2.6577148-2.6523438,2.6577148  s-2.6523438-1.1923828-2.6523438-2.6577148S30.4794922,17.597168,31.9423828,17.597168z M27.4041138,21.2548828  c0.4591675,2.0882568,2.3164062,3.6577148,4.538269,3.6577148s4.0791016-1.569458,4.538269-3.6577148h8.9381104  c0.4591675,2.0882568,2.3164062,3.6577148,4.538269,3.6577148s4.0791016-1.569458,4.538269-3.6577148h8.9381104  c0.4591675,2.0882568,2.3164062,3.6577148,4.538269,3.6577148c2.2209473,0,4.078125-1.569458,4.5373535-3.6577148h4.885498  v14.0224609h-4.5466309c-0.4592285-2.0883789-2.3164062-3.6582031-4.5373535-3.6582031  c-2.2218628,0-4.0791016,1.5698242-4.538269,3.6582031H60.647644c-0.4591675-2.0883789-2.3164062-3.6582031-4.538269-3.6582031  c-1.7128906,0-3.1959229,0.9421997-4.003418,2.3258667c-0.8074951-1.383667-2.2905273-2.3258667-4.003418-2.3258667  c-1.7719727,0-3.2971802,1.0084839-4.0825195,2.4715576c-0.7853394-1.4630737-2.3105469-2.4715576-4.0825195-2.4715576  c-2.2218628,0-4.0791016,1.5698242-4.538269,3.6582031H22.5400391V21.2548828H27.4041138z M15.1943359,14.4282227  c0-1.3393555,1.1992188-2.4287109,2.6728516-2.4287109s2.6728516,1.0893555,2.6728516,2.4287109v64.7333984h-5.3457031V14.4282227z   M88.125,87.9995117h-76v-6.8378906h76V87.9995117z"/></svg>