<svg xmlns="http://www.w3.org/2000/svg" xmlns:xlink="http://www.w3.org/1999/xlink" version="1.1" x="0px" y="0px" viewBox="0 0 100 125" style="enable-background:new 0 0 100 100;" xml:space="preserve"><path d="M14.803,15.276v42.188L10.167,86.16c-0.154,0.955,0.119,1.927,0.748,2.665C11.551,89.571,12.48,90,13.466,90h73.318  c0.99,0,1.923-0.432,2.559-1.185c0.63-0.745,0.897-1.723,0.735-2.682l-4.862-28.675V15.276c0-2.909-2.388-5.276-5.322-5.276h-59.77  C17.189,10,14.803,12.367,14.803,15.276z M87.815,87.524C87.561,87.827,87.185,88,86.784,88H13.466  c-0.398,0-0.773-0.172-1.028-0.472c-0.252-0.296-0.357-0.669-0.296-1.05l4.513-27.934h66.716l4.735,27.923  C88.171,86.851,88.067,87.227,87.815,87.524z M16.803,15.276c0-1.807,1.49-3.276,3.321-3.276h59.77c1.832,0,3.322,1.47,3.322,3.276  v41.269H16.803V15.276z"/><path d="M79.162,15.967H20.856c-0.553,0-1,0.447-1,1V51.75c0,0.553,0.447,1,1,1h58.306c0.553,0,1-0.447,1-1V16.967  C80.162,16.414,79.715,15.967,79.162,15.967z M78.162,50.75H21.856V17.967h56.306V50.75z"/><path d="M79.162,62.833H20.856c-0.505,0-0.931,0.377-0.992,0.878l-2.092,17c-0.035,0.284,0.054,0.57,0.243,0.784  c0.189,0.215,0.463,0.338,0.749,0.338h62.658c0.288,0,0.562-0.124,0.752-0.341c0.19-0.217,0.277-0.505,0.239-0.791l-2.261-17  C80.087,63.204,79.663,62.833,79.162,62.833z M79.151,71.333H65.63l-0.635-6.5h13.292L79.151,71.333z M49.094,73.333v6.5H35.177  l0.635-6.5H49.094z M36.007,71.333l0.635-6.5h12.452v6.5H36.007z M51.094,73.333h12.722l0.635,6.5H51.094V73.333z M51.094,71.333  v-6.5h11.891l0.635,6.5H51.094z M34.633,64.833l-0.635,6.5H20.941l0.8-6.5H34.633z M20.695,73.333h13.107l-0.635,6.5H19.896  L20.695,73.333z M66.46,79.833l-0.635-6.5h13.592l0.865,6.5H66.46z"/><path d="M41.185,42.049c1.908,2.463,4.207,3.038,5.886,3.458c1.195,0.299,1.887,0.493,2.198,1.009  C49.449,46.816,49.774,47,50.125,47s0.676-0.184,0.856-0.484c0.312-0.516,1.003-0.71,2.198-1.009  c1.679-0.42,3.978-0.995,5.886-3.458c3.556-4.586,1.538-9.24,0.677-11.228c-0.714-1.649,0.479-3.988,0.997-4.749  c0.296-0.431,0.21-1.018-0.197-1.346l-2.188-1.762c-0.28-0.224-0.657-0.283-0.989-0.152c-4.141,1.609-6.355-0.979-6.463-1.108  c-0.38-0.47-1.179-0.47-1.559,0.004c-0.021,0.028-2.255,2.737-6.459,1.104c-0.334-0.131-0.711-0.071-0.989,0.152l-2.188,1.762  c-0.407,0.328-0.493,0.915-0.197,1.346c0.02,0.027,1.851,2.779,0.997,4.749C39.646,32.809,37.629,37.463,41.185,42.049z   M41.635,25.743l1.079-0.869c3.383,1.104,5.996,0.002,7.411-1.146c1.415,1.146,4.028,2.249,7.411,1.146l1.079,0.869  c-0.657,1.238-1.653,3.691-0.709,5.873c1.191,2.748,2.072,5.99-0.421,9.208c-1.484,1.915-3.241,2.354-4.791,2.742  c-0.906,0.227-1.834,0.458-2.569,0.99c-0.735-0.532-1.663-0.764-2.569-0.99c-1.55-0.388-3.307-0.827-4.791-2.742  c-2.493-3.218-1.612-6.46-0.421-9.208C43.288,29.435,42.292,26.981,41.635,25.743z"/></svg>