<svg xmlns="http://www.w3.org/2000/svg" xmlns:xlink="http://www.w3.org/1999/xlink" version="1.1" x="0px" y="0px" viewBox="0 0 100 125" style="enable-background:new 0 0 100 100;" xml:space="preserve"><path d="M89.125,70.1943359h-3.5195312V24.152832c0-0.5522461-0.4472656-1-1-1H73.2734375V17.972168c0-0.5522461-0.4472656-1-1-1  H60.5361328v-5.9726562c0-0.5522461-0.4472656-1-1-1H40.0302734c-0.5527344,0-1,0.4477539-1,1v5.9726562H27.7265625  c-0.5527344,0-1,0.4477539-1,1v5.1806641H15.3945312c-0.5527344,0-1,0.4477539-1,1v46.0415039H11.125c-0.5527344,0-1,0.4477539-1,1  v8.8242188c0,0.5522461,0.4472656,1,1,1h5.0253906V89c0,0.5522461,0.4472656,1,1,1h7.625c0.5527344,0,1-0.4477539,1-1v-7.9814453  h48.6992188V89c0,0.5522461,0.4472656,1,1,1h7.625c0.5527344,0,1-0.4477539,1-1v-7.9814453H89.125c0.5527344,0,1-0.4477539,1-1  v-8.8242188C90.125,70.6420898,89.6777344,70.1943359,89.125,70.1943359z M83.6054688,25.152832v45.0415039H73.2734375V25.152832  H83.6054688z M71.2734375,18.972168v51.222168H60.5361328V18.972168H71.2734375z M58.5361328,11.9995117v58.1948242H41.0302734  V11.9995117H58.5361328z M39.0302734,18.972168v51.222168H28.7265625V18.972168H39.0302734z M16.3945312,25.152832h10.3320312  v45.0415039H16.3945312V25.152832z M23.7753906,88h-5.625v-6.9814453h5.625V88z M82.0996094,88h-5.625v-6.9814453h5.625V88z   M88.125,79.0185547h-76v-6.8242188h76V79.0185547z"/><path d="M45.9541016,49.8305664h7.6591797c0.5527344,0,1-0.4477539,1-1V16.875c0-0.5522461-0.4472656-1-1-1h-7.6591797  c-0.5527344,0-1,0.4477539-1,1v31.9555664C44.9541016,49.3828125,45.4013672,49.8305664,45.9541016,49.8305664z M46.9541016,17.875  h5.6591797v29.9555664h-5.6591797V17.875z"/><path d="M24.0019531,62.5014648h-4.8896484c-0.5527344,0-1,0.4477539-1,1s0.4472656,1,1,1h4.8896484c0.5527344,0,1-0.4477539,1-1  S24.5546875,62.5014648,24.0019531,62.5014648z"/><path d="M19.1123047,60.6577148h4.8896484c0.5527344,0,1-0.4477539,1-1s-0.4472656-1-1-1h-4.8896484c-0.5527344,0-1,0.4477539-1,1  S18.5595703,60.6577148,19.1123047,60.6577148z"/><path d="M80.8876953,62.5014648h-4.8896484c-0.5527344,0-1,0.4477539-1,1s0.4472656,1,1,1h4.8896484c0.5527344,0,1-0.4477539,1-1  S81.4404297,62.5014648,80.8876953,62.5014648z"/><path d="M75.9980469,60.6577148h4.8896484c0.5527344,0,1-0.4477539,1-1s-0.4472656-1-1-1h-4.8896484c-0.5527344,0-1,0.4477539-1,1  S75.4453125,60.6577148,75.9980469,60.6577148z"/></svg>