<svg xmlns="http://www.w3.org/2000/svg" xmlns:xlink="http://www.w3.org/1999/xlink" version="1.1" x="0px" y="0px" viewBox="0 0 100 125" style="enable-background:new 0 0 100 100;" xml:space="preserve"><style type="text/css">
	.st0{fill:none;stroke:#000000;stroke-width:2;stroke-linecap:round;stroke-linejoin:round;stroke-miterlimit:10;}
</style><path d="M11.333,90h78c0.552,0,1-0.447,1-1s-0.448-1-1-1h-4.25V40.957c0-0.553-0.448-1-1-1H71.42V34.5  c0-0.357-0.191-0.688-0.501-0.866L51.458,22.422v-3.797h8.375c0.552,0,1-0.447,1-1V11c0-0.553-0.448-1-1-1h-9.375  c-0.552,0-1,0.447-1,1v11.418L29.751,33.631c-0.312,0.178-0.505,0.51-0.505,0.869v5.457H16.583c-0.552,0-1,0.447-1,1V88h-4.25  c-0.552,0-1,0.447-1,1S10.781,90,11.333,90z M60.583,88h-9.125V66.833h9.125V88z M49.458,88h-9.375V66.833h9.375V88z M58.833,16.625  h-7.375V12h7.375V16.625z M17.583,41.957h12.663c0.552,0,1-0.447,1-1v-5.875l19.209-10.93L69.42,35.078v5.879c0,0.553,0.448,1,1,1  h12.663V88h-20.5V65.833c0-0.553-0.448-1-1-1h-22.5c-0.552,0-1,0.447-1,1V88h-20.5V41.957z"/><path d="M33.5,64.847H22.961c-0.552,0-1,0.447-1,1v9.243c0,0.553,0.448,1,1,1H33.5c0.552,0,1-0.447,1-1v-9.243  C34.5,65.294,34.052,64.847,33.5,64.847z M32.5,74.09h-8.539v-7.243H32.5V74.09z"/><path d="M67.794,76.09h10.539c0.552,0,1-0.447,1-1v-9.243c0-0.553-0.448-1-1-1H67.794c-0.552,0-1,0.447-1,1v9.243  C66.794,75.643,67.242,76.09,67.794,76.09z M68.794,66.847h8.539v7.243h-8.539V66.847z"/><path d="M33.5,50.667H22.961c-0.552,0-1,0.447-1,1v9.243c0,0.553,0.448,1,1,1H33.5c0.552,0,1-0.447,1-1v-9.243  C34.5,51.114,34.052,50.667,33.5,50.667z M32.5,59.91h-8.539v-7.243H32.5V59.91z"/><path d="M67.794,61.91h10.539c0.552,0,1-0.447,1-1v-9.243c0-0.553-0.448-1-1-1H67.794c-0.552,0-1,0.447-1,1v9.243  C66.794,61.463,67.242,61.91,67.794,61.91z M68.794,52.667h8.539v7.243h-8.539V52.667z"/><path d="M38.766,61.91h22.817c0.552,0,1-0.447,1-1v-9.243c0-0.553-0.448-1-1-1H38.766c-0.552,0-1,0.447-1,1v9.243  C37.766,61.463,38.214,61.91,38.766,61.91z M39.766,52.667h20.817v7.243H39.766V52.667z"/><path d="M50.333,45.69c4.024,0,7.297-3.273,7.297-7.298s-3.273-7.298-7.297-7.298s-7.298,3.273-7.298,7.298  S46.31,45.69,50.333,45.69z M50.333,33.095c2.921,0,5.297,2.377,5.297,5.298s-2.376,5.298-5.297,5.298  c-2.921,0-5.298-2.377-5.298-5.298S47.412,33.095,50.333,33.095z"/></svg>